<?xml version="1.0" encoding="utf-8"?>
<!-- Generator: Adobe Illustrator 24.1.2, SVG Export Plug-In . SVG Version: 6.00 Build 0)  -->
<svg version="1.1" xmlns="http://www.w3.org/2000/svg" xmlns:xlink="http://www.w3.org/1999/xlink" x="0px" y="0px"
	 viewBox="0 0 3710 3710" style="enable-background:new 0 0 3710 3710;" xml:space="preserve">
<style type="text/css">
	.st0{display:none;}
	.st1{display:inline;}
	.st2{fill:#FFFFFF;}
	.st3{fill:#F4F7FA;}
	.st4{opacity:0.5;clip-path:url(#SVGID_3_);}
	.st5{clip-path:url(#SVGID_6_);}
	.st6{fill:#FCFDFE;}
	.st7{fill:url(#SVGID_7_);}
	.st8{fill:url(#SVGID_8_);}
	.st9{opacity:0.3;fill:url(#SVGID_9_);}
	.st10{fill:url(#SVGID_10_);}
	.st11{opacity:0.3;}
	.st12{fill:url(#SVGID_11_);}
	.st13{fill:url(#SVGID_12_);}
	.st14{fill:url(#SVGID_13_);}
	.st15{fill:url(#SVGID_14_);}
	.st16{fill:#D8DEE8;}
	.st17{fill:#26264F;}
	.st18{fill:url(#SVGID_15_);}
	.st19{fill:url(#SVGID_16_);}
	.st20{opacity:0.71;}
	.st21{fill:url(#SVGID_17_);}
	.st22{fill:url(#SVGID_18_);}
	.st23{fill:url(#SVGID_19_);}
	.st24{opacity:0.25;fill:url(#SVGID_20_);}
	.st25{fill:url(#SVGID_21_);}
	.st26{fill:url(#SVGID_22_);}
	.st27{fill:url(#SVGID_23_);}
	.st28{opacity:0.25;fill:url(#SVGID_24_);}
	.st29{fill:url(#SVGID_25_);}
	.st30{fill:url(#SVGID_26_);}
	.st31{fill:url(#SVGID_27_);}
	.st32{fill:url(#SVGID_28_);}
	.st33{fill:url(#SVGID_29_);}
	.st34{fill:url(#SVGID_30_);}
	.st35{opacity:0.3;fill:url(#SVGID_31_);}
	.st36{fill:url(#SVGID_32_);}
	.st37{fill:url(#SVGID_33_);}
	.st38{fill:url(#SVGID_34_);}
	.st39{fill:url(#SVGID_35_);}
	.st40{fill:#C2C2C2;}
	.st41{fill:url(#SVGID_36_);}
	.st42{fill:url(#SVGID_37_);}
	.st43{fill:url(#SVGID_38_);}
	.st44{fill:url(#SVGID_39_);}
	.st45{fill:url(#SVGID_40_);}
	.st46{fill:url(#SVGID_41_);}
	.st47{fill:url(#SVGID_42_);}
	.st48{fill:#D5DBE2;}
	.st49{fill:url(#SVGID_43_);}
	.st50{fill:url(#SVGID_44_);}
	.st51{fill:url(#SVGID_45_);}
	.st52{fill:url(#SVGID_46_);}
</style>
<g id="Background" class="st0">
	<g class="st1">
		<g>
			<rect class="st2" width="3710" height="3710"/>
		</g>
	</g>
</g>
<g id="Illustration">
	<g>
		<path class="st3" d="M961.52,596.13c-95.67,133.93,12.54,353.83-128.37,453.83c-137.17,97.34-302.7-66.32-431.88,17.35
			c-191.64,124.13-162.96,701.63,111.52,1063.14c82.54,108.72,152.02,151.41,181.71,273.7c63.74,262.58-171.6,415.91-128.49,545.9
			c97.07,292.69,1634.5,553.61,2261.64-316.35c292.9-406.31,342.3-996.95,89.17-1448.61
			C2459.42,368.95,1176.18,295.62,961.52,596.13z"/>
		<g>
			<g>
				<defs>
					<path id="SVGID_1_" d="M1659.76,2326.36c-144.73-23.99-289.81-656.1-31.62-917.63c107.74-109.13,231.26-98.59,317.99-248.82
						c77.39-134.05,13.25-201.68,72.77-356.94c83.69-218.3,338.47-418.37,518.67-358.47c90.41,30.05,176.68,130.41,182.1,246.85
						c4.34,93.26-88.32,166.48-66.59,190.02c17.84,19.33,73.94-30.7,109.14-11.19c51.9,28.77,52.7,205.67-29.01,335.67
						c-139.89,222.56-432.62,166.15-483.36,337.72c-32.34,109.36,75.51,169.73,30.96,279.9c-39.2,96.92-140.57,94.4-292.65,191.29
						C1749.93,2166.53,1737.35,2339.22,1659.76,2326.36z"/>
				</defs>
				<linearGradient id="SVGID_2_" gradientUnits="userSpaceOnUse" x1="2416.7737" y1="659.6382" x2="1746.1346" y2="2393.5657">
					<stop  offset="0" style="stop-color:#26ACB4"/>
					<stop  offset="0.9964" style="stop-color:#2DAEBF"/>
				</linearGradient>
				<use xlink:href="#SVGID_1_"  style="overflow:visible;fill:url(#SVGID_2_);"/>
				<clipPath id="SVGID_3_">
					<use xlink:href="#SVGID_1_"  style="overflow:visible;"/>
				</clipPath>
				<g class="st4">
					<path class="st2" d="M1667.96,2460.02c-3.06,0.2-6.05-1.56-7.26-4.56c-1.07-2.63-0.5-5.53,1.24-7.54
						c1.01-4.31,1.26-18.95,1.55-35.74c1.63-94.47,5.96-345.43,140.01-716.39c168.59-466.55,477.08-947.65,916.9-1429.94
						c2.73-2.99,7.37-3.2,10.35-0.48c2.99,2.73,3.2,7.36,0.48,10.35C2258.69,793.89,1692.41,1585.2,1678.14,2412.43
						c-0.65,37.42-0.76,44.17-7.9,47.06C1669.5,2459.8,1668.73,2459.97,1667.96,2460.02z"/>
					<path class="st2" d="M2047.8,1215.89c-3.86,0.25-7.29-2.57-7.74-6.46c-0.47-4.02,2.4-7.66,6.42-8.13
						c330.87-38.87,537.41-108.21,652.41-159.52c124.53-55.57,171.46-102.53,171.92-103c2.82-2.88,7.46-2.93,10.36-0.1
						c2.89,2.83,2.94,7.46,0.12,10.35c-1.93,1.97-48.58,48.9-175.06,105.52c-116.04,51.95-324.39,122.1-658.05,161.3
						C2048.06,1215.87,2047.93,1215.88,2047.8,1215.89z"/>
					<path class="st2" d="M2236.14,895.6c-1.51,0.1-3.05-0.27-4.42-1.15c-76.71-49.21-111.2-165.61-102.51-345.96
						c6.4-132.94,35.21-253.36,35.5-254.56c0.95-3.94,4.91-6.36,8.84-5.4c3.93,0.95,6.35,4.91,5.4,8.84
						c-1.14,4.73-112.15,473.88,60.68,584.75c3.4,2.18,4.4,6.72,2.21,10.13C2240.54,894.28,2238.39,895.45,2236.14,895.6z"/>
					<path class="st2" d="M1782.26,1788.87c-2.13,0.14-4.3-0.65-5.86-2.34c-97.73-105.85-122.4-258.23-125.89-367.42
						c-3.76-117.82,15.68-212.19,15.88-213.13c0.83-3.96,4.71-6.5,8.67-5.67c3.96,0.83,6.5,4.71,5.67,8.67
						c-0.19,0.92-19.31,93.86-15.56,210c3.44,106.59,27.4,255.15,121.99,357.61c2.75,2.97,2.56,7.61-0.41,10.36
						C1785.48,1788.12,1783.88,1788.76,1782.26,1788.87z"/>
				</g>
			</g>
		</g>
		<g>
			<g>
				<defs>
					<path id="SVGID_4_" d="M1683.39,2473.84c5.08-294.02,61.72-510.11,110.23-648.5c38.08-108.64,102.23-258.03,185.99-259.92
						c40.13-0.91,55.41,32.72,97.71,29.93c79.87-5.26,105.77-130.44,173.33-210.62c115.56-137.17,403.75-202.89,569.87-69.5
						c200.04,160.64,139.8,543.13-6.95,632.41c-86.95,52.9-211.2,7.06-229.34,55.6c-18.25,48.84,104.03,104.8,95.01,187.62
						c-9.34,85.74-152.13,133.49-160.76,136.27c-172.56,55.66-271.87-63.87-448.51-59.81
						C1974.13,2269.52,1841.22,2308.42,1683.39,2473.84z"/>
				</defs>
				<linearGradient id="SVGID_5_" gradientUnits="userSpaceOnUse" x1="2518.947" y1="1658.0881" x2="1844.8356" y2="2412.1204">
					<stop  offset="3.597121e-03" style="stop-color:#44B4E5"/>
					<stop  offset="1" style="stop-color:#49619A"/>
				</linearGradient>
				<use xlink:href="#SVGID_4_"  style="overflow:visible;fill:url(#SVGID_5_);"/>
				<clipPath id="SVGID_6_">
					<use xlink:href="#SVGID_4_"  style="overflow:visible;"/>
				</clipPath>
				<g class="st5">
					<g>
						<path class="st6" d="M1601.15,2694.22l4.33,1.14c175.07-667.26,727.05-1158.34,1476.55-1313.65l-0.91-4.39
							c-355.21,73.61-678.19,228.92-934.03,449.15C1878.13,2058,1689.35,2358.06,1601.15,2694.22z"/>
						<path class="st6" d="M1612.69,1672.29c92.75,164.31,152.98,458.07,134.26,654.83l4.46,0.42
							c18.8-197.54-41.68-492.47-134.81-657.46L1612.69,1672.29z"/>
						<path class="st6" d="M1637.01,2563.63l3.85,2.29c52.59-88.26,147.79-146.54,282.93-173.22c99.09-19.57,216.96-22,350.34-7.24
							l0.49-4.45c-133.83-14.81-252.16-12.36-351.7,7.29C1786.48,2415.24,1690.29,2474.23,1637.01,2563.63z"/>
						<path class="st6" d="M2184.62,1796.62l3.73,2.49c107.69-161.26,104.43-365.15,82.74-507.8l-4.43,0.67
							C2288.23,1433.85,2291.52,1636.55,2184.62,1796.62z"/>
						<path class="st6" d="M2557.36,1555.56l1.19,4.32c210.59-58.11,423.4,27.28,531.52,83.35l2.06-3.98
							C2983.44,1582.88,2769.42,1497.04,2557.36,1555.56z"/>
					</g>
				</g>
			</g>
		</g>
		<g>
			<linearGradient id="SVGID_7_" gradientUnits="userSpaceOnUse" x1="655.8912" y1="906.4518" x2="1315.8508" y2="877.7579">
				<stop  offset="0" style="stop-color:#3E83B1"/>
				<stop  offset="1" style="stop-color:#0F779A"/>
			</linearGradient>
			<path class="st7" d="M1766.05,1237.92c-9.53,0-17.67-7.78-18.59-18.17c-16.37-184.48-72.37-359.76-157.69-493.56
				c-75.58-118.53-165.56-189.27-240.74-189.27c-0.09,0-0.16,0-0.25,0c-273.83,0.57-331.11,675.82-331.65,682.64
				c-0.89,11.05-9.9,19.23-20.23,18.29c-10.29-0.95-17.91-10.68-17.02-21.72c2.35-29.35,60.97-718.72,368.83-719.36
				c0.11,0,0.22,0,0.33,0c88.83,0,187.79,75.33,271.58,206.73c88.83,139.32,147.1,321.31,164.06,512.44
				c0.98,11.04-6.56,20.84-16.84,21.9C1767.24,1237.89,1766.64,1237.92,1766.05,1237.92z"/>
			<linearGradient id="SVGID_8_" gradientUnits="userSpaceOnUse" x1="586.9064" y1="1981.1848" x2="1204.1489" y2="1981.1848">
				<stop  offset="0" style="stop-color:#44B5E6"/>
				<stop  offset="1" style="stop-color:#495E99"/>
			</linearGradient>
			<path class="st8" d="M625.28,2627.63l360.46,196.01l218.4-719.85l-359.87-965.06l-102.04,26.87l-154.83,1386
				C583.9,2582.98,599.04,2613.36,625.28,2627.63z"/>
			<linearGradient id="SVGID_9_" gradientUnits="userSpaceOnUse" x1="753.5462" y1="1981.1843" x2="1204.1489" y2="1981.1843">
				<stop  offset="0" style="stop-color:#3583C0"/>
				<stop  offset="1" style="stop-color:#375EA0"/>
			</linearGradient>
			<path class="st9" d="M1204.15,2103.79l-359.87-965.06l-60.19,15.85c-8.35,128.85-4.68,234.9,0.99,312.11
				c24.12,328.57,104.24,420.01,65.43,649.23c-32.27,190.59-102.75,216.46-96.59,344.69c6.71,139.66,97.4,256.61,205.22,348.57
				l26.6,14.46L1204.15,2103.79z"/>
			<linearGradient id="SVGID_10_" gradientUnits="userSpaceOnUse" x1="844.282" y1="1981.1848" x2="2633.1099" y2="1981.1848">
				<stop  offset="0" style="stop-color:#45B2E8"/>
				<stop  offset="1" style="stop-color:#4C5DA8"/>
			</linearGradient>
			<polygon class="st10" points="844.28,1138.73 2201.72,1212.63 2633.11,2681.07 985.75,2823.64 			"/>
			<g class="st11">
				<linearGradient id="SVGID_11_" gradientUnits="userSpaceOnUse" x1="1506.7196" y1="1715.6448" x2="2379.3328" y2="3764.9653">
					<stop  offset="0" style="stop-color:#4697CE"/>
					<stop  offset="1" style="stop-color:#334879"/>
				</linearGradient>
				<path class="st12" d="M2201.72,1212.63l-707.91-38.54c-11.94,18.78-27.77,49.38-30.72,88.42
					c-17.43,230.87,458.95,305.61,501.64,588.99c32.49,215.75-167.45,464.69-345.85,575.6
					c-187.96,116.85-315.32,57.68-442.44,187.41c-55.85,57-89.87,128.28-110.09,202.16l1566.76-135.59L2201.72,1212.63z"/>
			</g>
			<linearGradient id="SVGID_12_" gradientUnits="userSpaceOnUse" x1="1667.699" y1="308.3217" x2="1380.7725" y2="2757.45">
				<stop  offset="0" style="stop-color:#46A2D7"/>
				<stop  offset="1" style="stop-color:#313E69"/>
			</linearGradient>
			<path class="st13" d="M1260.64,1270.92c-8.48,0-16.16-6.25-18.19-15.5c-3.82-17.49-92.12-430.77,32.39-633.59
				c35.69-58.13,85.55-93.62,148.19-105.49c321.87-60.91,520.03,681.59,528.31,713.23c2.79,10.68-3,21.76-12.94,24.76
				c-9.95,3.01-20.26-3.23-23.06-13.9c-1.94-7.39-197.01-739.32-485.82-684.55c-52.86,10.01-93.24,38.81-123.47,88.04
				c-115.74,188.54-28.1,598.2-27.2,602.32c2.36,10.79-3.88,21.6-13.93,24.13C1263.49,1270.75,1262.05,1270.92,1260.64,1270.92z"/>
			<linearGradient id="SVGID_13_" gradientUnits="userSpaceOnUse" x1="1818.7316" y1="212.4635" x2="988.5522" y2="1791.826">
				<stop  offset="0" style="stop-color:#27476D"/>
				<stop  offset="1" style="stop-color:#27486E"/>
			</linearGradient>
			<ellipse class="st14" cx="1260.77" cy="1273.95" rx="52.25" ry="56.12"/>
			<linearGradient id="SVGID_14_" gradientUnits="userSpaceOnUse" x1="2341.834" y1="508.3084" x2="1511.6577" y2="2087.6653">
				<stop  offset="0" style="stop-color:#48699D"/>
				<stop  offset="1" style="stop-color:#031B3A"/>
			</linearGradient>
			<ellipse class="st15" cx="1942.12" cy="1268.74" rx="52.25" ry="56.12"/>
			<path class="st16" d="M2305.61,1919.23l-421.44-410.95c-8.88-8.66-21.6-11.09-32.72-6.23l-224.91,98.19
				c-18.95,8.27-25.49,33.57-13.21,51.15l367.06,525.54c10.15,14.53,29.22,17.73,43.01,7.22l279.29-212.79
				C2318.94,1958.98,2320.36,1933.62,2305.61,1919.23z M1823.68,1652.75c-14.2,10.25-36.58,1.2-49.99-20.22
				c-13.41-21.42-12.77-47.1,1.44-57.35s36.58-1.2,49.99,20.22C1838.53,1616.81,1837.88,1642.49,1823.68,1652.75z"/>
			<path class="st3" d="M2305.61,1913.62l-421.44-410.95c-8.88-8.66-21.6-11.09-32.72-6.23l-224.91,98.19
				c-18.95,8.27-25.49,33.57-13.21,51.15l367.06,525.54c10.15,14.53,29.22,17.73,43.01,7.22l279.29-212.79
				C2318.94,1953.37,2320.36,1928.01,2305.61,1913.62z M1823.68,1647.14c-14.2,10.25-36.58,1.2-49.99-20.22
				c-13.41-21.42-12.77-47.1,1.44-57.35c14.2-10.25,36.58-1.2,49.99,20.22C1838.53,1611.21,1837.88,1636.88,1823.68,1647.14z"/>
			<g>
				<path class="st17" d="M1736.09,1546.21c-1.35,0-2.63-0.79-3.18-2.11c-14.6-34.42-34.29-64.15-58.53-88.36
					c-66.41-66.35-152.17-76.78-235.1-86.87c-82.53-10.04-160.48-19.52-207.04-85.2c-11.79-16.62-30.1-46.67-20.27-61.13
					c3.94-5.8,11.81-8.47,23.36-7.92c1.91,0.09,3.38,1.71,3.29,3.62c-0.09,1.91-1.69,3.41-3.62,3.29
					c-6.19-0.29-14.21,0.32-17.32,4.89c-5.22,7.68,2.71,28.58,20.2,53.24c44.79,63.18,121.27,72.48,202.23,82.33
					c84.1,10.23,171.06,20.81,239.16,88.84c24.87,24.85,45.06,55.31,60.01,90.55c0.75,1.76-0.07,3.79-1.83,4.53
					C1737,1546.13,1736.54,1546.21,1736.09,1546.21z"/>
			</g>
			<g>
				<path class="st17" d="M1772.09,1615.76c-0.89,0-1.78-0.34-2.45-1.02c-1.35-1.35-1.34-3.54,0.01-4.89
					c0.29-0.29,29.15-29.49,29.01-68.44c-0.09-23.92-10.97-46.7-32.35-67.7c-45.34-44.52-165.63-96.08-271.76-141.58
					c-64.78-27.77-125.96-54-166.14-76.61c-9.11-5.13-18.75-10-28.65-14.47c-1.74-0.79-2.51-2.83-1.73-4.57
					c0.79-1.74,2.83-2.51,4.58-1.73c10.08,4.56,19.9,9.52,29.19,14.75c39.86,22.43,100.87,48.59,165.48,76.28
					c106.69,45.73,227.62,97.57,273.88,143c22.77,22.36,34.35,46.81,34.42,72.67c0.12,41.87-29.77,72.04-31.05,73.3
					C1773.85,1615.42,1772.97,1615.76,1772.09,1615.76z"/>
			</g>
			<path class="st2" d="M2305.61,1913.62l-421.44-410.95c-8.88-8.66-21.6-11.08-32.72-6.23l-20.03,8.74
				c5.24,19.1,13.08,40.59,25.04,62.53c62.25,114.15,164.39,109.23,187.99,188.45c20.91,70.21-49.24,107.88-58.48,206.4
				c-4.62,49.23,5.93,114.71,62.42,196.96l254.31-193.75C2318.94,1953.37,2320.36,1928.01,2305.61,1913.62z"/>
			<path class="st16" d="M1983.91,2064.2c-5.65,0-11.16-3.07-14.3-8.64c-4.79-8.47-2.27-19.51,5.61-24.66l202.95-132.33
				c7.89-5.14,18.17-2.44,22.96,6.03c4.79,8.47,2.27,19.51-5.61,24.66l-202.95,132.33
				C1989.86,2063.36,1986.87,2064.2,1983.91,2064.2z"/>
		</g>
		<g>
			
				<linearGradient id="SVGID_15_" gradientUnits="userSpaceOnUse" x1="4834.0562" y1="2158.8916" x2="4331.2554" y2="3008.0657" gradientTransform="matrix(-1 0 0 1 6767.0215 0)">
				<stop  offset="0" style="stop-color:#318368"/>
				<stop  offset="0.3156" style="stop-color:#00AA88"/>
				<stop  offset="0.9964" style="stop-color:#88C9D1"/>
			</linearGradient>
			<polygon class="st18" points="1860.2,2838.24 2380.6,2874.84 2380.6,2112.65 1860.2,2149.25 			"/>
			
				<linearGradient id="SVGID_16_" gradientUnits="userSpaceOnUse" x1="4398.4092" y1="2167.7651" x2="3940.4792" y2="2941.1582" gradientTransform="matrix(-1 0 0 1 6767.0215 0)">
				<stop  offset="0" style="stop-color:#28AF8D"/>
				<stop  offset="0.3808" style="stop-color:#44B9AF"/>
				<stop  offset="0.9964" style="stop-color:#FFFFFF"/>
			</linearGradient>
			<polygon class="st19" points="2380.6,2874.84 2771.47,2822.68 2771.47,2161.3 2380.6,2112.65 			"/>
			<polygon class="st2" points="2196.38,2125.6 2196.38,2434.87 2022.01,2434.87 2022.01,2137.87 			"/>
			<g class="st20">
				<path class="st2" d="M2599.32,2507.31c-17.72-94.62-84.95-142.25-97.55-266.83c-3.95-39.08-1.6-76.63,5-112.12l264.71,32.95
					v661.38l-323.57,43.18C2591.9,2706.01,2614.81,2590.04,2599.32,2507.31z"/>
			</g>
		</g>
		<g>
			<g>
				
					<linearGradient id="SVGID_17_" gradientUnits="userSpaceOnUse" x1="2771.9448" y1="1461.1553" x2="2934.6934" y2="1461.1553" gradientTransform="matrix(-1 0 0 1 3682.3848 0)">
					<stop  offset="0" style="stop-color:#311944"/>
					<stop  offset="1" style="stop-color:#6B3976"/>
				</linearGradient>
				<path class="st21" d="M793.83,1514.59c-7.52-3.8-19.6-11.17-29.64-24.53c-10.75-14.31-22.24-39.57-13.29-50.08
					c4.29-5.04,10.16-3.01,22.48-5.11c25.65-4.37,32.56-18.66,49.06-24.53c36.23-12.89,90.69,24.83,87.89,43.95
					c-1.17,7.96-12.26,12.71-32.7,21.46c-20.96,8.97-29.4,7.85-47.01,15.33C821.45,1494.98,808.26,1501.85,793.83,1514.59z"/>
				<g>
					
						<linearGradient id="SVGID_18_" gradientUnits="userSpaceOnUse" x1="2858.635" y1="2820.5078" x2="3133.7725" y2="3080.2458" gradientTransform="matrix(-0.9873 -0.1586 -0.1586 0.9873 3913.1047 205.6246)">
						<stop  offset="0" style="stop-color:#495F9A"/>
						<stop  offset="1" style="stop-color:#1E0F00"/>
					</linearGradient>
					<path class="st22" d="M453.88,2645.42l-3.52-6.11c0,0-6.32-3.79-9.32,4.05c-2.99,7.84-19.97,48.78-20.87,67.35
						c4.45,11.11,17.06,1.7,19.65-5.85c2.6-7.55,11.61-35.57,11.61-35.57L453.88,2645.42z"/>
					
						<linearGradient id="SVGID_19_" gradientUnits="userSpaceOnUse" x1="2751.5676" y1="2468.1238" x2="3024.0981" y2="2361.8367" gradientTransform="matrix(-1 0 0 1 3682.3848 0)">
						<stop  offset="0" style="stop-color:#40447E"/>
						<stop  offset="0.9964" style="stop-color:#3C3B6B"/>
					</linearGradient>
					<path class="st23" d="M493.96,2674.65c-5.26-0.08-10.5-0.04-15.79-0.28c-9.66-0.43-19.36-1.13-29.11-2.1
						c1.63-10.14,3.26-20.27,4.88-30.41c4.97-1.9,9.83-3.8,14.58-5.71c2.43-0.98,4.75-1.96,7.12-2.94c2.23-0.92,4.52-1.84,6.7-2.77
						c3.21-1.36,6.32-2.73,9.43-4.1c1.24-0.54,2.52-1.08,3.74-1.63c3.65-1.63,7.19-3.27,10.69-4.9c0.59-0.28,1.21-0.55,1.8-0.83
						c3.79-1.79,7.48-3.58,11.1-5.37c0.26-0.13,0.54-0.26,0.8-0.39c3.81-1.89,7.53-3.79,11.16-5.69c0.05-0.03,0.1-0.05,0.15-0.08
						c7.38-3.87,14.38-7.75,21.03-11.63l0,0c82.39-48.15,109.63-97.03,118.02-135.47c23.62-108.15-92.02-177.6-62.15-294.87
						c22.51-88.38,117.51-164.05,176.01-146.4c66.07,19.93,76.42,147.99,82.79,226.79c7.17,88.73,15.16,187.58-41.59,276.13
						c-53.74,83.85-150.82,135.45-262.53,149.18c0,0,0,0.01,0,0.02c-2.66,0.33-5.38,0.47-8.05,0.76c-6.48,0.69-12.94,1.4-19.51,1.84
						c-3,0.2-6.06,0.21-9.08,0.36c-6.4,0.31-12.79,0.66-19.25,0.73C502.61,2674.91,498.27,2674.71,493.96,2674.65z"/>
					
						<linearGradient id="SVGID_20_" gradientUnits="userSpaceOnUse" x1="2751.5676" y1="2468.1238" x2="3024.0981" y2="2361.8367" gradientTransform="matrix(-1 0 0 1 3682.3848 0)">
						<stop  offset="0" style="stop-color:#48699D"/>
						<stop  offset="0.9964" style="stop-color:#485371"/>
					</linearGradient>
					<path class="st24" d="M493.96,2674.65c-5.26-0.08-10.5-0.04-15.79-0.28c-9.66-0.43-19.36-1.13-29.11-2.1
						c1.63-10.14,3.26-20.27,4.88-30.41c4.97-1.9,9.83-3.8,14.58-5.71c2.43-0.98,4.75-1.96,7.12-2.94c2.23-0.92,4.52-1.84,6.7-2.77
						c3.21-1.36,6.32-2.73,9.43-4.1c1.24-0.54,2.52-1.08,3.74-1.63c3.65-1.63,7.19-3.27,10.69-4.9c0.59-0.28,1.21-0.55,1.8-0.83
						c3.79-1.79,7.48-3.58,11.1-5.37c0.26-0.13,0.54-0.26,0.8-0.39c3.81-1.89,7.53-3.79,11.16-5.69c0.05-0.03,0.1-0.05,0.15-0.08
						c7.38-3.87,14.38-7.75,21.03-11.63l0,0c82.39-48.15,109.63-97.03,118.02-135.47c23.62-108.15-92.02-177.6-62.15-294.87
						c22.51-88.38,117.51-164.05,176.01-146.4c66.07,19.93,76.42,147.99,82.79,226.79c7.17,88.73,15.16,187.58-41.59,276.13
						c-53.74,83.85-150.82,135.45-262.53,149.18c0,0,0,0.01,0,0.02c-2.66,0.33-5.38,0.47-8.05,0.76c-6.48,0.69-12.94,1.4-19.51,1.84
						c-3,0.2-6.06,0.21-9.08,0.36c-6.4,0.31-12.79,0.66-19.25,0.73C502.61,2674.91,498.27,2674.71,493.96,2674.65z"/>
					
						<linearGradient id="SVGID_21_" gradientUnits="userSpaceOnUse" x1="2586.7822" y1="1674.3597" x2="2814.019" y2="1890.3472" gradientTransform="matrix(-1 0 0 1 3682.3848 0)">
						<stop  offset="0" style="stop-color:#74CCC3"/>
						<stop  offset="0.9964" style="stop-color:#2D999B"/>
					</linearGradient>
					<path class="st25" d="M1031.95,2046.02c12.63-20.04-46.26-49.6-65.41-131.84c-16.17-69.43,16.82-87.02-1.18-179.97
						c-10.02-51.77-27.13-81.83-47.07-103.66c-16.43-17.99-37.78-41.35-57.02-38.3c-60.34,9.58-131.81,284.02-11.24,403.69
						C911.99,2057.44,1016.72,2070.19,1031.95,2046.02z"/>
					<g>
						
							<linearGradient id="SVGID_22_" gradientUnits="userSpaceOnUse" x1="2439.1433" y1="3184.2092" x2="2431.8225" y2="3545.7646" gradientTransform="matrix(-0.9832 -0.1825 -0.1825 0.9832 3749.0042 160.6767)">
							<stop  offset="0" style="stop-color:#1E0F00"/>
							<stop  offset="1" style="stop-color:#1E0F00"/>
						</linearGradient>
						<path class="st26" d="M715.25,2914.96c2.74-6.33,17.85,9.58,31.92,26.37c-1.81,24.17-3.63,48.35-5.44,72.52
							c5-3.18,11.29-6.65,18.4-8.29c8.54-1.97,23.3,1.11,24.43,5.19c7,25.19-55.83,30.69-62.71,22.78
							c-6.88-7.92-5.31-17.18-5.31-17.18c6.38-36.3,5.53-60.89,2.51-77.87C716.92,2926.57,713.73,2918.46,715.25,2914.96z"/>
						
							<linearGradient id="SVGID_23_" gradientUnits="userSpaceOnUse" x1="2521.2791" y1="2582.354" x2="2632.1484" y2="2958.0779" gradientTransform="matrix(-0.9832 -0.1825 -0.1825 0.9832 3749.0042 160.6767)">
							<stop  offset="0" style="stop-color:#48699D"/>
							<stop  offset="0.9964" style="stop-color:#26476D"/>
						</linearGradient>
						<path class="st27" d="M554.3,2104.21c35.85-52.86,70.8-106.32,105.83-159.72c6.88-10.49,10.87-22.66,12.79-35.44
							c13.91,11.04,27.23,24.26,39.51,39.72c9.86,49.46,25.1,123.81,45.2,213.93c51.07,229,72.57,286.34,83.41,358.38
							c16.67,110.82,10.76,274.12-99.31,492.79c-8.4,0.83-16.79,1.67-25.19,2.5c-17.69-187.05-37.99-355.86-48.23-442.62
							c-3.48-29.44-13.73-117.74-61.01-188.87c-0.76-1.15-70.72-96.81-94.86-135.03c-8.04-12.72-18.09-29.23-29.52-51.31
							C510.03,2170.05,531.75,2137.45,554.3,2104.21z"/>
						
							<linearGradient id="SVGID_24_" gradientUnits="userSpaceOnUse" x1="2963.7488" y1="2176.0439" x2="3077.2517" y2="2560.6921" gradientTransform="matrix(-1 0 0 1 3682.3848 0)">
							<stop  offset="0" style="stop-color:#3583C0"/>
							<stop  offset="0.9964" style="stop-color:#375FA1"/>
						</linearGradient>
						<path class="st28" d="M554.3,2104.21c35.85-52.86,70.8-106.32,105.83-159.72c6.88-10.49,10.87-22.66,12.79-35.44
							c13.91,11.04,27.23,24.26,39.51,39.72c15.64,60.47,26.78,112.2,34.58,151.75c21.65,109.7,20.41,140.05,4.91,167.29
							c-21.32,37.45-45.86,27.32-61.44,59.91c-27.31,57.14,45.81,96.18,45.14,206.37c-0.37,61.1-22.22,76.43-12.27,132.51
							c2.57,14.48,9.85,46.28,6.63,89.97c-1.41,19.19-2.96,15.01-4.13,32.35c-3.35,49.39,8.43,94.8,3.33,125.65
							c-1.83,11.09-5.61,18.82-7.07,21.63c-3.93,7.55-8.54,12.97-11.78,16.32c-16.03-161.02-32.96-302.02-42.02-378.78
							c-3.48-29.43-13.73-117.74-61.01-188.87c-0.76-1.15-70.72-96.81-94.86-135.03c-8.04-12.72-18.09-29.23-29.52-51.3
							C510.03,2170.05,531.75,2137.45,554.3,2104.21z"/>
					</g>
					
						<linearGradient id="SVGID_25_" gradientUnits="userSpaceOnUse" x1="3026.6877" y1="1785.3451" x2="3651.9492" y2="2181.5498" gradientTransform="matrix(-0.9995 -0.0302 -0.0302 0.9995 3917.7205 118.8563)">
						<stop  offset="0" style="stop-color:#7BCEC7"/>
						<stop  offset="0.9964" style="stop-color:#00A58A"/>
					</linearGradient>
					<path class="st29" d="M925.28,1642.02c22.54,41.33,19.97,82.48,17.5,100.5c-7.42,54.18-39.08,90.29-49.7,103.94
						c-35.63,45.78-63.42,136.32-19.19,334.81c-24.82-3.98-65.66-7.81-113.24,2.11c-121.04,25.23-169.35,115.11-227.42,98.72
						c-21.44-6.05-50.55-28.37-70.86-111.74c-17.74-43.35-73.04-193.76-16.35-370.64c40.54-126.51,118.53-204.66,157.16-238.65
						c33.21-11.19,136.91-41.42,235.58,6.36C863.34,1579.34,901.54,1598.49,925.28,1642.02z"/>
					<g>
						
							<linearGradient id="SVGID_26_" gradientUnits="userSpaceOnUse" x1="-247.4214" y1="-389.2531" x2="-282.0071" y2="-348.4305" gradientTransform="matrix(0.3449 -0.9386 0.9386 0.3449 1272.5709 1681.9639)">
							<stop  offset="0" style="stop-color:#FFFFFF"/>
							<stop  offset="0.9964" style="stop-color:#FFFFFF"/>
						</linearGradient>
						<path class="st30" d="M811.97,1898.33l92.57-32.69c1.71-0.55,3.08-1.86,3.7-3.54l15.35-41.77c1.59-4.31-2.21-8.68-6.71-7.71
							l-86.98,18.81c-1.99,0.43-6.42,1.72-7.78,5.42l-17.22,50.94C803.33,1892.33,807.39,1899.8,811.97,1898.33z"/>
						
							<linearGradient id="SVGID_27_" gradientUnits="userSpaceOnUse" x1="-363.2241" y1="-323.2679" x2="-173.274" y2="-323.2679" gradientTransform="matrix(0.3449 -0.9386 0.9386 0.3449 1272.5709 1681.9639)">
							<stop  offset="0" style="stop-color:#2FAEC5"/>
							<stop  offset="0.9964" style="stop-color:#22AE8C"/>
						</linearGradient>
						<path class="st31" d="M813.39,1898.86l89.46-28.61c1.71-0.55,3.08-1.85,3.7-3.54l15.35-41.77c1.59-4.32-2.21-8.68-6.7-7.71
							l-86.98,18.81c-1.99,0.43-3.61,1.87-4.28,3.79l-17.83,51.57C804.53,1895.95,808.81,1900.33,813.39,1898.86z"/>
					</g>
					
						<linearGradient id="SVGID_28_" gradientUnits="userSpaceOnUse" x1="-448.6713" y1="-180.2282" x2="-328.3512" y2="-180.2282" gradientTransform="matrix(-0.8308 0.5567 0.5567 0.8308 560.2872 2252.583)">
						<stop  offset="0" style="stop-color:#1E0F00"/>
						<stop  offset="1" style="stop-color:#1E0F00"/>
					</linearGradient>
					<path class="st32" d="M772.83,1870.92l10.01-4.75c0,0,15.74-11.52,26.31-16.16c10.57-4.64,19.13-3.54,25.69,6.24
						c6.55,9.78-4.57,18.98-14.12,27.06c-5.81,4.91-17.92,5.35-27.73,4.83c-6.89-0.37-20.68,4.41-20.68,4.41L772.83,1870.92z"/>
					<g>
						
							<linearGradient id="SVGID_29_" gradientUnits="userSpaceOnUse" x1="-747.4919" y1="2469.0364" x2="-735.9758" y2="2162.2871" gradientTransform="matrix(0.9261 0.3773 -0.3773 0.9261 2366.8079 -288.2454)">
							<stop  offset="0" style="stop-color:#7FD2EC"/>
							<stop  offset="1" style="stop-color:#FFFFFF"/>
						</linearGradient>
						<path class="st33" d="M791.75,1478.28c0.03,8.73-0.31,55.49-21.08,63.16c-4.54,1.68-8.19,0.61-28.33,1.13
							c-11.48,0.3-20.83,0.91-26.84,1.38c1.02,7.97,3.03,18.65,7.3,30.66c25.85,72.74,109.52,123.28,137.87,105.07
							c14.76-9.48,15.9-37.92,16.37-49.72c0.71-17.72-3.56-31.76-6.68-39.8c-10.38-7.54-21-15.1-31.85-22.65
							c-7.09-4.94-14.15-9.78-21.16-14.52c0.47-8.95,0.95-17.89,1.42-26.84C809.76,1510.2,800.76,1494.24,791.75,1478.28z"/>
						
							<linearGradient id="SVGID_30_" gradientUnits="userSpaceOnUse" x1="-248.3477" y1="2012.8795" x2="-254.5131" y2="1837.17" gradientTransform="matrix(0.9786 0.206 -0.206 0.9786 1441.7991 -233.1068)">
							<stop  offset="0" style="stop-color:#FFFFFF"/>
							<stop  offset="1" style="stop-color:#FFFFFF"/>
						</linearGradient>
						<path class="st34" d="M782.69,1495.53c0,0-0.1,38.48,30.62,50.99c27.51,11.21,63.59-53.37,52.72-74.33
							c-3.63-6.99-14.49-15.2-25-17.1c-7.39-1.33-38.08-1.52-46.77,22.59c-2.59-7.62-7.73-12.56-13.05-12.62
							c-0.85-0.01-3.28,0.35-5.23,1.74C768.93,1471.82,770.94,1483.57,782.69,1495.53z"/>
					</g>
					
						<linearGradient id="SVGID_31_" gradientUnits="userSpaceOnUse" x1="3012.4504" y1="1781.837" x2="3654.4216" y2="2188.6299" gradientTransform="matrix(-0.9995 -0.0302 -0.0302 0.9995 3917.7205 118.8563)">
						<stop  offset="0" style="stop-color:#2FAF92"/>
						<stop  offset="0.9964" style="stop-color:#03625F"/>
					</linearGradient>
					<path class="st35" d="M446.01,1799.73c31.72-98.98,86.29-168.22,127.08-210.01c46.75,30.9,94.32,72.78,90.35,117.68
						c-4.52,51.09-72.78,72.21-66.4,104.52c9.24,46.83,157.92,29.09,175.27,80.63c20.45,60.73-155.85,174.96-146.42,187.89
						c6.74,9.25,87.83-56.11,179.87-40.88c17.86,2.95,33.85,9.92,48.11,19.09c3.28,35.5,9.65,76.06,20.03,122.63
						c-24.82-3.98-65.66-7.81-113.24,2.11c-121.04,25.23-169.35,115.11-227.42,98.72c-21.44-6.05-50.55-28.37-70.86-111.74
						C444.62,2127.02,389.33,1976.61,446.01,1799.73z"/>
					
						<linearGradient id="SVGID_32_" gradientUnits="userSpaceOnUse" x1="3002.9314" y1="1740.376" x2="3333.6357" y2="1949.9309" gradientTransform="matrix(-1 0 0 1 3682.3848 0)">
						<stop  offset="0" style="stop-color:#7DCFC8"/>
						<stop  offset="0.9964" style="stop-color:#7DCFC8"/>
					</linearGradient>
					<path class="st36" d="M668.99,1564.57c-28.1-7-28.24-16.14-65.82-3.49c-107.91,36.32-222.15,199.18-163.11,314.18
						c32.84,63.96,111.52,121.64,198.27,108.33c70.62-10.83,112.09-63.41,122.64-77.67c4.09-16.35,8.18-32.7,12.26-49.05
						c-46.02,26.09-78.43,26.08-100.15,20.44c-36.98-9.6-45.19-36.1-106.29-59.27c-23.8-9.03-38.1-10.91-38.84-18.4
						c-1.51-15.49,58.34-20.65,96.07-53.14C651.53,1722.8,678.97,1674.52,668.99,1564.57z"/>
				</g>
			</g>
			<g>
				<g>
					<g>
						
							<linearGradient id="SVGID_33_" gradientUnits="userSpaceOnUse" x1="1566.5861" y1="3008.1917" x2="1587.5229" y2="3025.7976" gradientTransform="matrix(-1 0 0 1 3682.3848 0)">
							<stop  offset="0" style="stop-color:#AA80F9"/>
							<stop  offset="0.9964" style="stop-color:#6165D7"/>
						</linearGradient>
						<path class="st37" d="M2037.08,3042.57c0,27.49,16.94,49.78,37.84,49.78c20.9,0,37.84-22.29,37.84-49.78
							c0-27.49-16.94-49.78-37.84-49.78C2054.02,2992.79,2037.08,3015.07,2037.08,3042.57z"/>
						
							<linearGradient id="SVGID_34_" gradientUnits="userSpaceOnUse" x1="1580.1636" y1="3048.1875" x2="1655.8506" y2="3048.1875" gradientTransform="matrix(-1 0 0 1 3682.3848 0)">
							<stop  offset="0" style="stop-color:#3C628D"/>
							<stop  offset="0.9964" style="stop-color:#24496C"/>
						</linearGradient>
						<path class="st38" d="M2026.53,3048.19c0,27.49,16.94,49.78,37.84,49.78s37.84-22.29,37.84-49.78
							c0-27.49-16.94-49.78-37.84-49.78S2026.53,3020.69,2026.53,3048.19z"/>
						
							<linearGradient id="SVGID_35_" gradientUnits="userSpaceOnUse" x1="1602.1461" y1="3049.1904" x2="1633.8611" y2="3049.1904" gradientTransform="matrix(-1 0 0 1 3682.3848 0)">
							<stop  offset="0" style="stop-color:#40447E"/>
							<stop  offset="0.9964" style="stop-color:#3C3B6B"/>
						</linearGradient>
						<path class="st39" d="M2048.52,3049.19c0,11.52,7.1,20.86,15.86,20.86c8.76,0,15.86-9.34,15.86-20.86
							c0-11.52-7.1-20.86-15.86-20.86C2055.62,3028.33,2048.52,3037.67,2048.52,3049.19z"/>
					</g>
					<path class="st40" d="M2074.92,2987.42v54.66c0,8.03-6.51,14.53-14.53,14.53l0,0c-4.64,0-9-2.22-11.74-5.96l-49.16-67.32
						L2074.92,2987.42z"/>
				</g>
				<g>
					<g>
						
							<linearGradient id="SVGID_36_" gradientUnits="userSpaceOnUse" x1="1971.7469" y1="2964.5386" x2="1992.684" y2="2982.1445" gradientTransform="matrix(-1 0 0 1 3682.3848 0)">
							<stop  offset="0" style="stop-color:#AA80F9"/>
							<stop  offset="0.9964" style="stop-color:#6165D7"/>
						</linearGradient>
						<path class="st41" d="M1631.91,2998.91c0,27.49,16.94,49.78,37.84,49.78c20.9,0,37.84-22.29,37.84-49.78
							c0-27.49-16.94-49.78-37.84-49.78C1648.86,2949.13,1631.91,2971.42,1631.91,2998.91z"/>
						
							<linearGradient id="SVGID_37_" gradientUnits="userSpaceOnUse" x1="1985.3256" y1="3004.5356" x2="2061.0125" y2="3004.5356" gradientTransform="matrix(-1 0 0 1 3682.3848 0)">
							<stop  offset="0" style="stop-color:#3D638F"/>
							<stop  offset="0.9964" style="stop-color:#24496C"/>
						</linearGradient>
						<path class="st42" d="M1621.37,3004.54c0,27.49,16.94,49.78,37.84,49.78c20.9,0,37.84-22.29,37.84-49.78
							c0-27.49-16.94-49.78-37.84-49.78C1638.32,2954.75,1621.37,2977.04,1621.37,3004.54z"/>
						
							<linearGradient id="SVGID_38_" gradientUnits="userSpaceOnUse" x1="2007.3081" y1="3005.5378" x2="2039.022" y2="3005.5378" gradientTransform="matrix(-1 0 0 1 3682.3848 0)">
							<stop  offset="0" style="stop-color:#40447E"/>
							<stop  offset="0.9964" style="stop-color:#3C3B6B"/>
						</linearGradient>
						<path class="st43" d="M1643.36,3005.54c0,11.52,7.1,20.86,15.86,20.86c8.76,0,15.86-9.34,15.86-20.86s-7.1-20.86-15.86-20.86
							C1650.46,2984.68,1643.36,2994.02,1643.36,3005.54z"/>
					</g>
					<path class="st40" d="M1669.76,2943.77v54.67c0,8.03-6.51,14.53-14.53,14.53l0,0c-4.64,0-9-2.22-11.74-5.96l-49.16-67.32
						L1669.76,2943.77z"/>
				</g>
				<path class="st2" d="M2080.57,2995.92c4.98,0,9.27-3.75,9.85-8.81c0.62-5.45-3.3-10.36-8.75-10.97l-479.81-54.07
					c-26.11-4.49-47.89-24.34-54.92-50.48l-200.99-748.3c-10.7-39.85-45.55-68.52-86.7-71.35l-145.95-8.7
					c-5.49-0.38-10.17,3.84-10.5,9.31c-0.33,5.47,3.84,10.17,9.31,10.5l145.85,8.7c32.62,2.25,60.3,25.03,68.81,56.69l200.99,748.3
					c9.03,33.6,37.02,59.1,71.3,64.98l480.38,54.15C2079.82,2995.9,2080.2,2995.92,2080.57,2995.92z"/>
				<path class="st2" d="M1746.76,2701.35c4.32,0,8.29-2.84,9.54-7.2l112.99-395.36c1.51-5.27-1.55-10.76-6.81-12.27
					c-5.26-1.5-10.76,1.55-12.27,6.81l-112.99,395.36c-1.51,5.27,1.55,10.76,6.81,12.27
					C1744.94,2701.22,1745.86,2701.35,1746.76,2701.35z"/>
				<path class="st2" d="M1631.17,2684.82c4.72,0,8.91-3.38,9.76-8.18l69.69-391.63c0.96-5.4-2.64-10.55-8.03-11.51
					c-5.45-0.98-10.55,2.64-11.51,8.03l-69.69,391.63c-0.96,5.4,2.64,10.55,8.03,11.51
					C1630.01,2684.77,1630.59,2684.82,1631.17,2684.82z"/>
				<path class="st2" d="M1559.35,2671.98c0.14,0,0.28,0,0.42-0.01c5.48-0.23,9.73-4.85,9.5-10.33l-16.08-387.49
					c-0.22-5.48-4.61-9.82-10.33-9.5c-5.48,0.23-9.73,4.85-9.5,10.33l16.08,387.49C1549.66,2667.8,1554.06,2671.98,1559.35,2671.98z
					"/>
				<path class="st2" d="M1904.42,2715.81c4.15,0,8.01-2.62,9.41-6.77l132.66-395.53c1.74-5.19-1.06-10.82-6.26-12.56
					c-5.19-1.73-10.82,1.06-12.56,6.26l-132.66,395.53c-1.74,5.19,1.06,10.82,6.26,12.56
					C1902.31,2715.65,1903.37,2715.81,1904.42,2715.81z"/>
				
					<linearGradient id="SVGID_39_" gradientUnits="userSpaceOnUse" x1="2564.1016" y1="2064.2251" x2="2930.3291" y2="2064.2251" gradientTransform="matrix(-1 0 0 1 3682.3848 0)">
					<stop  offset="0" style="stop-color:#40447E"/>
					<stop  offset="0.9964" style="stop-color:#3C3B6B"/>
				</linearGradient>
				<path class="st44" d="M771.88,2097.5c0.55,0,1.1-0.02,1.65-0.07l326.53-26.85c10.92-0.9,19.05-10.48,18.15-21.41
					c-0.9-10.93-10.49-19.07-21.41-18.15l-326.53,26.84c-10.92,0.9-19.05,10.48-18.15,21.41
					C752.98,2089.65,761.66,2097.5,771.88,2097.5z"/>
				<g>
					<g>
						
							<linearGradient id="SVGID_40_" gradientUnits="userSpaceOnUse" x1="1922.0548" y1="3143.9619" x2="1942.9917" y2="3161.5679" gradientTransform="matrix(-1 0 0 1 3682.3848 0)">
							<stop  offset="0" style="stop-color:#AA80F9"/>
							<stop  offset="0.9964" style="stop-color:#6165D7"/>
						</linearGradient>
						<path class="st45" d="M1681.61,3178.34c0,27.49,16.94,49.78,37.84,49.78c20.9,0,37.84-22.29,37.84-49.78
							c0-27.49-16.94-49.78-37.84-49.78C1698.55,3128.56,1681.61,3150.84,1681.61,3178.34z"/>
						
							<linearGradient id="SVGID_41_" gradientUnits="userSpaceOnUse" x1="1935.6324" y1="3183.9585" x2="2011.3193" y2="3183.9585" gradientTransform="matrix(-1 0 0 1 3682.3848 0)">
							<stop  offset="0" style="stop-color:#3C628D"/>
							<stop  offset="0.9964" style="stop-color:#234164;stop-opacity:0.25"/>
						</linearGradient>
						<path class="st46" d="M1671.07,3183.96c0,27.49,16.94,49.78,37.84,49.78c20.9,0,37.84-22.29,37.84-49.78
							c0-27.49-16.94-49.78-37.84-49.78C1688.01,3134.18,1671.07,3156.46,1671.07,3183.96z"/>
						
							<linearGradient id="SVGID_42_" gradientUnits="userSpaceOnUse" x1="1957.6149" y1="3184.9607" x2="1989.3301" y2="3184.9607" gradientTransform="matrix(-1 0 0 1 3682.3848 0)">
							<stop  offset="0" style="stop-color:#40447E"/>
							<stop  offset="0.9964" style="stop-color:#3C3B6B"/>
						</linearGradient>
						<path class="st47" d="M1693.05,3184.96c0,11.52,7.1,20.86,15.86,20.86c8.76,0,15.86-9.34,15.86-20.86
							c0-11.52-7.1-20.86-15.86-20.86C1700.15,3164.1,1693.05,3173.44,1693.05,3184.96z"/>
					</g>
					<path class="st48" d="M1719.45,3123.19v54.66c0,8.03-6.51,14.53-14.53,14.53l0,0c-4.64,0-9-2.22-11.74-5.96l-49.16-67.32
						L1719.45,3123.19z"/>
				</g>
				<g>
					<g>
						
							<linearGradient id="SVGID_43_" gradientUnits="userSpaceOnUse" x1="2272.8376" y1="3108.845" x2="2293.7747" y2="3126.4509" gradientTransform="matrix(-1 0 0 1 3682.3848 0)">
							<stop  offset="0" style="stop-color:#AA80F9"/>
							<stop  offset="0.9964" style="stop-color:#6165D7"/>
						</linearGradient>
						<path class="st49" d="M1330.82,3143.22c0,27.49,16.94,49.78,37.84,49.78c20.9,0,37.84-22.29,37.84-49.78
							c0-27.49-16.94-49.78-37.84-49.78C1347.77,3093.44,1330.82,3115.73,1330.82,3143.22z"/>
						
							<linearGradient id="SVGID_44_" gradientUnits="userSpaceOnUse" x1="2286.416" y1="3148.8411" x2="2362.103" y2="3148.8411" gradientTransform="matrix(-1 0 0 1 3682.3848 0)">
							<stop  offset="0" style="stop-color:#3B618C"/>
							<stop  offset="0.9964" style="stop-color:#1F3C5D;stop-opacity:0.25"/>
						</linearGradient>
						<path class="st50" d="M1320.28,3148.84c0,27.49,16.94,49.78,37.84,49.78s37.84-22.29,37.84-49.78
							c0-27.49-16.94-49.78-37.84-49.78S1320.28,3121.35,1320.28,3148.84z"/>
						
							<linearGradient id="SVGID_45_" gradientUnits="userSpaceOnUse" x1="2308.3984" y1="3149.843" x2="2340.1125" y2="3149.843" gradientTransform="matrix(-1 0 0 1 3682.3848 0)">
							<stop  offset="0" style="stop-color:#40447E"/>
							<stop  offset="0.9964" style="stop-color:#3C3B6B"/>
						</linearGradient>
						<path class="st51" d="M1342.27,3149.84c0,11.52,7.1,20.86,15.86,20.86s15.86-9.34,15.86-20.86c0-11.52-7.1-20.86-15.86-20.86
							S1342.27,3138.32,1342.27,3149.84z"/>
					</g>
					<path class="st48" d="M1368.67,3088.08v54.66c0,8.03-6.51,14.53-14.53,14.53l0,0c-4.64,0-9-2.22-11.74-5.96l-49.16-67.32
						L1368.67,3088.08z"/>
				</g>
				<path class="st2" d="M2229.85,2329.34c5.16,0,9.51-3.99,9.89-9.21c0.39-5.47-3.72-10.22-9.19-10.61l-854.54-61.51
					c-0.8-0.04-1.59-0.02-2.38,0.12l-353.77,60.26c-5.4,0.92-9.04,6.05-8.12,11.45c0.92,5.4,5.98,9.04,11.45,8.12l352.59-60.06
					l853.34,61.43C2229.37,2329.33,2229.61,2329.34,2229.85,2329.34z"/>
				<path class="st48" d="M1939.48,2417.5c0.97,0,1.95-0.15,2.88-0.43l290.36-88.16c5.24-1.59,8.2-7.14,6.61-12.38
					c-1.6-5.24-7.17-8.19-12.38-6.61l-288.47,87.59l-915.99-89.22c-5.54-0.6-10.31,3.46-10.84,8.91
					c-0.53,5.46,3.46,10.31,8.91,10.84l917.95,89.41C1938.84,2417.49,1939.16,2417.5,1939.48,2417.5z"/>
				<path class="st40" d="M1132.06,2729.41c0.5,0,1.01-0.04,1.52-0.12l348.11-53.41l529.62,50.98c5.45,0.51,10.31-3.48,10.83-8.93
					c0.52-5.46-3.47-10.3-8.93-10.83L1482.36,2656c-0.81-0.08-1.65-0.06-2.46,0.07l-349.34,53.6c-5.42,0.83-9.13,5.9-8.3,11.31
					C1123.02,2725.89,1127.25,2729.41,1132.06,2729.41z"/>
				<path class="st48" d="M1763.27,2789.42c3.8,0,7.31-2.19,8.96-5.67l176.22-371.92c2.35-4.95,0.23-10.87-4.72-13.22
					c-4.95-2.34-10.87-0.24-13.22,4.72l-173.24,365.63l-624.26-59.35c-5.53-0.52-10.3,3.49-10.82,8.94
					c-0.52,5.46,3.48,10.3,8.94,10.82l631.19,60.01C1762.64,2789.41,1762.95,2789.42,1763.27,2789.42z"/>
				<path class="st48" d="M1763.25,2789.42c0.8,0,1.61-0.1,2.43-0.3l249-62.52c2.68-0.67,4.96-2.43,6.29-4.86l217.58-397.56
					c2.63-4.81,0.86-10.84-3.94-13.47c-4.81-2.62-10.84-0.86-13.47,3.94l-215.49,393.75l-244.79,61.46
					c-5.32,1.33-8.54,6.73-7.21,12.04C1754.77,2786.42,1758.81,2789.42,1763.25,2789.42z"/>
				<path class="st48" d="M1875.39,2552.78c0.94,0,1.89-0.14,2.79-0.4l273.46-80.15c5.26-1.54,8.27-7.06,6.73-12.31
					c-1.54-5.26-7.08-8.28-12.31-6.73l-271.67,79.62l-807.49-70.42c-5.55-0.55-10.27,3.57-10.75,9.02
					c-0.48,5.46,3.56,10.27,9.02,10.75l809.35,70.59C1874.81,2552.76,1875.1,2552.78,1875.39,2552.78z"/>
				<path class="st48" d="M1808.57,2693.78c0.9,0,1.8-0.12,2.67-0.37l261.98-73.39c5.28-1.48,8.36-6.95,6.88-12.23
					c-1.48-5.28-6.95-8.37-12.23-6.88l-260.24,72.9l-701.19-61.34c-5.45-0.58-10.27,3.56-10.75,9.02
					c-0.48,5.46,3.56,10.27,9.02,10.75l702.99,61.5C1808,2693.77,1808.29,2693.78,1808.57,2693.78z"/>
				<path class="st48" d="M1634.38,2777.17c4.27,0,8.22-2.79,9.51-7.09l112.38-377.03c1.57-5.25-1.42-10.78-6.68-12.35
					c-5.23-1.57-10.78,1.42-12.35,6.68l-112.38,377.03c-1.57,5.25,1.42,10.78,6.68,12.35
					C1632.48,2777.03,1633.44,2777.17,1634.38,2777.17z"/>
				<path class="st48" d="M1510.07,2765.35c4.73,0,8.92-3.39,9.76-8.2l67.4-381.98c0.95-5.4-2.65-10.54-8.05-11.5
					c-5.38-0.94-10.55,2.66-11.5,8.05l-67.4,381.98c-0.95,5.4,2.65,10.54,8.05,11.5C1508.91,2765.3,1509.49,2765.35,1510.07,2765.35
					z"/>
				<path class="st48" d="M1369.86,2749.39c5.23,0,9.6-4.08,9.9-9.37l21.24-379.29c0.31-5.48-3.88-10.16-9.35-10.47
					c-5.51-0.21-10.16,3.88-10.47,9.35l-21.24,379.29c-0.31,5.48,3.88,10.16,9.35,10.47
					C1369.48,2749.39,1369.67,2749.39,1369.86,2749.39z"/>
				<path class="st48" d="M1237.01,2734.52c0.17,0,0.35,0,0.53-0.01c5.48-0.29,9.68-4.96,9.39-10.43l-20.21-385.34
					c-0.29-5.47-4.9-9.67-10.43-9.39c-5.48,0.29-9.68,4.96-9.39,10.43l20.21,385.34
					C1227.39,2730.41,1231.77,2734.52,1237.01,2734.52z"/>
				<path class="st48" d="M1838.56,2770.51c3.69,0,7.24-2.07,8.95-5.62l181.63-377.52c2.38-4.94,0.3-10.87-4.64-13.24
					c-4.93-2.37-10.87-0.3-13.25,4.64l-181.63,377.52c-2.38,4.94-0.3,10.87,4.64,13.25
					C1835.65,2770.2,1837.12,2770.51,1838.56,2770.51z"/>
				<path class="st48" d="M1939.47,2745.17c3.64,0,7.15-2.01,8.89-5.49l192.8-386.22c2.45-4.9,0.46-10.86-4.44-13.31
					c-4.91-2.46-10.87-0.46-13.31,4.44l-192.8,386.21c-2.45,4.9-0.46,10.86,4.44,13.31
					C1936.47,2744.84,1937.98,2745.17,1939.47,2745.17z"/>
				<path class="st48" d="M1721.35,3138.48c1.25,0,2.49-0.24,3.66-0.7l359.21-142.56c5.1-2.03,7.59-7.79,5.57-12.88
					c-2.02-5.1-7.8-7.59-12.88-5.57l-356.85,141.63l-433.31-52.93c-30.84-3.77-56.1-25.56-64.36-55.52l-237.53-862.33
					c-10.84-39.36-45.48-67.78-86.19-70.73l-126.03-9.14c-5.41-0.31-10.22,3.71-10.62,9.18c-0.39,5.47,3.72,10.22,9.18,10.62
					l126.03,9.14c32.35,2.34,59.88,24.93,68.49,56.21l237.53,862.33c10.4,37.74,42.23,65.2,81.09,69.95l435.82,53.24
					C1720.55,3138.45,1720.95,3138.48,1721.35,3138.48z"/>
			</g>
			
				<linearGradient id="SVGID_46_" gradientUnits="userSpaceOnUse" x1="2675.8721" y1="1986.1683" x2="2636.5256" y2="2046.9768" gradientTransform="matrix(-1 0 0 1 3682.3848 0)">
				<stop  offset="0" style="stop-color:#000000"/>
				<stop  offset="1" style="stop-color:#000000"/>
			</linearGradient>
			<path class="st52" d="M1001.8,2042.96c3.14-0.11,46.85-1.34,51,11.6c1.18,3.67,0.1,7.31,0.1,7.31
				c-2.29,7.72-11.89,10.37-13.29,10.73c14.7,9.41,32.43,6.88,40.88-3.58c5.92-7.32,7.63-18.94,2.94-27.87
				c-4.35-8.27-12.58-11.48-17.24-13.01C1033.49,2017.41,1001.8,2042.96,1001.8,2042.96z"/>
		</g>
	</g>
</g>
<g id="Layer_3">
</g>
<g id="Layer_5">
</g>
<g id="Layer_4">
</g>
</svg>
