<?xml version="1.0" encoding="utf-8"?>
<!-- Generator: Adobe Illustrator 25.2.1, SVG Export Plug-In . SVG Version: 6.00 Build 0)  -->
<svg version="1.1" xmlns="http://www.w3.org/2000/svg" xmlns:xlink="http://www.w3.org/1999/xlink" x="0px" y="0px"
	 viewBox="0 0 407.02 407.02" style="enable-background:new 0 0 407.02 407.02;" xml:space="preserve">
<style type="text/css">
	.st0{enable-background:new    ;}
	.st1{fill-rule:evenodd;clip-rule:evenodd;fill:#007DC3;}
	.st2{fill:#1F1F1F;}
	.st3{fill-rule:evenodd;clip-rule:evenodd;fill:#FFFFFF;}
</style>
<g id="Ellipse_2_1_" class="st0">
	<g id="Ellipse_2">
		<g>
			
				<ellipse transform="matrix(0.7071 -0.7071 0.7071 0.7071 -84.2968 203.5105)" class="st1" cx="203.51" cy="203.51" rx="203.51" ry="203.51"/>
		</g>
		<g>
			<path class="st2" d="M203.51,0.01c13.81,0,27.61,1.39,41.01,4.13c13.07,2.67,25.92,6.66,38.2,11.86
				c12.06,5.1,23.69,11.41,34.57,18.76c10.78,7.28,20.91,15.64,30.12,24.85c9.21,9.21,17.57,19.34,24.85,30.12
				c7.35,10.88,13.66,22.51,18.76,34.57c5.19,12.28,9.18,25.13,11.86,38.2c2.74,13.41,4.13,27.21,4.13,41.01s-1.39,27.61-4.13,41.01
				c-2.67,13.07-6.66,25.92-11.86,38.2c-5.1,12.06-11.41,23.69-18.76,34.57c-7.28,10.78-15.64,20.91-24.85,30.12
				c-9.21,9.21-19.34,17.57-30.12,24.85c-10.88,7.35-22.51,13.66-34.57,18.76c-12.28,5.19-25.13,9.18-38.2,11.86
				c-13.41,2.74-27.21,4.13-41.01,4.13s-27.61-1.39-41.01-4.13c-13.07-2.67-25.92-6.66-38.2-11.86
				c-12.06-5.1-23.69-11.41-34.57-18.76c-10.78-7.28-20.91-15.64-30.12-24.85s-17.57-19.34-24.85-30.12
				C27.41,306.41,21.1,294.78,16,282.72c-5.19-12.28-9.18-25.13-11.86-38.2c-2.74-13.41-4.13-27.21-4.13-41.01S1.4,175.9,4.14,162.5
				c2.67-13.07,6.66-25.92,11.86-38.2c5.1-12.06,11.41-23.69,18.76-34.57c7.28-10.78,15.64-20.91,24.85-30.12
				s19.34-17.57,30.12-24.85C100.61,27.41,112.24,21.1,124.3,16c12.28-5.19,25.13-9.18,38.2-11.86C175.9,1.4,189.7,0.01,203.51,0.01
				 M203.51,0C91.11,0,0,91.11,0,203.51s91.11,203.51,203.51,203.51s203.51-91.11,203.51-203.51S315.91,0,203.51,0L203.51,0z"/>
		</g>
	</g>
</g>
<g id="CRACKER_1_" class="st0">
	<g id="CRACKER">
		<g>
			<path class="st3" d="M78.95,233.75l-3.01,22.1h14.92l3.3-23.39c0.19-0.76,0.29-1.53,0.29-2.3v-2.15c0-5.17-1.39-8.99-4.16-11.48
				c-2.78-2.49-6.6-3.73-11.48-3.73c-5.55,0-10.14,1.65-13.78,4.95c-3.64,3.3-5.93,8.25-6.89,14.85l-8.47,59.7
				c-0.1,0.77-0.17,1.53-0.22,2.3c-0.05,0.77-0.07,1.48-0.07,2.15c0,5.17,1.39,8.99,4.16,11.48c2.77,2.49,6.6,3.73,11.48,3.73
				c5.45,0,10.02-1.65,13.7-4.95c3.68-3.3,6-8.25,6.96-14.85l3.44-24.4H74.22l-3.3,23.25c-0.48,3.25-1.05,5.31-1.72,6.17
				c-0.67,0.86-1.44,1.29-2.3,1.29c-0.77,0-1.36-0.19-1.79-0.57c-0.43-0.38-0.65-1.34-0.65-2.87c0-0.96,0.14-2.3,0.43-4.02
				l8.04-57.26c0.38-3.25,0.88-5.33,1.51-6.24c0.62-0.91,1.46-1.36,2.51-1.36c0.76,0,1.34,0.22,1.72,0.65
				c0.38,0.43,0.57,1.41,0.57,2.94v1.79C79.24,232.15,79.14,232.89,78.95,233.75z M136.71,252.05c1.1-2.82,1.98-6.24,2.65-10.26
				l0.86-5.6c0.19-1.05,0.33-2.1,0.43-3.16c0.09-1.05,0.14-2.1,0.14-3.16c0-4.88-1.36-8.83-4.09-11.84
				c-2.73-3.01-7.68-4.52-14.85-4.52c-1.34,0-3.28,0.1-5.81,0.29c-2.54,0.19-5.62,0.57-9.26,1.15l-13.35,95.72h15.07l6.03-44.06
				h1.72c1.43,0,2.44,0.53,3.01,1.58c0.57,1.05,0.86,2.58,0.86,4.59c0,1.63-0.14,3.49-0.43,5.6l-4.45,32.29h14.92l4.31-31.28
				c0.19-1.63,0.36-3.09,0.5-4.38c0.14-1.29,0.22-2.56,0.22-3.8c0-6.12-1.67-10.28-5.02-12.48
				C133.43,257.1,135.61,254.87,136.71,252.05z M125.02,234.68c0,0.72-0.1,1.46-0.29,2.22l-0.57,4.16c-0.77,4.98-1.72,8.3-2.87,9.97
				c-1.15,1.67-2.58,2.51-4.31,2.51h-0.57l3.73-26.4c0.29-0.09,0.52-0.17,0.72-0.22c0.19-0.05,0.43-0.07,0.72-0.07
				c2.3,0,3.44,1.91,3.44,5.74V234.68z M137.93,310.67H153l5.45-29.42h9.04l-2.44,29.42h14.64l7.75-96.58h-30.42L137.93,310.67z
				 M168.78,226.86h3.73l-3.59,41.04h-8.04L168.78,226.86z M219.73,233.75l-3.01,22.1h14.92l3.3-23.39c0.19-0.76,0.29-1.53,0.29-2.3
				v-2.15c0-5.17-1.39-8.99-4.16-11.48c-2.78-2.49-6.6-3.73-11.48-3.73c-5.55,0-10.14,1.65-13.78,4.95
				c-3.64,3.3-5.93,8.25-6.89,14.85l-8.47,59.7c-0.1,0.77-0.17,1.53-0.22,2.3c-0.05,0.77-0.07,1.48-0.07,2.15
				c0,5.17,1.39,8.99,4.16,11.48c2.77,2.49,6.6,3.73,11.48,3.73c5.45,0,10.02-1.65,13.7-4.95c3.68-3.3,6-8.25,6.96-14.85l3.44-24.4
				h-14.92l-3.3,23.25c-0.48,3.25-1.05,5.31-1.72,6.17c-0.67,0.86-1.43,1.29-2.3,1.29c-0.77,0-1.36-0.19-1.79-0.57
				c-0.43-0.38-0.65-1.34-0.65-2.87c0-0.96,0.14-2.3,0.43-4.02l8.04-57.26c0.38-3.25,0.88-5.33,1.51-6.24
				c0.62-0.91,1.46-1.36,2.51-1.36c0.76,0,1.34,0.22,1.72,0.65c0.38,0.43,0.57,1.41,0.57,2.94v1.79
				C220.01,232.15,219.92,232.89,219.73,233.75z M284.3,214.09h-15.64l-10.48,38.17h-0.72l5.45-38.17h-15.21l-13.49,96.58h15.21
				l5.74-41.62h0.72l1.58,41.62h15.36l-4.45-50.51L284.3,214.09z M307.69,227.44h14.49l2.01-13.35h-29.56l-13.49,96.58h29.56
				l2.01-13.49h-14.78l4.45-32h11.34l1.87-13.78h-11.34L307.69,227.44z M362.87,218.04c-2.73-3.01-7.68-4.52-14.85-4.52
				c-1.34,0-3.28,0.1-5.81,0.29c-2.54,0.19-5.62,0.57-9.26,1.15l-13.35,95.72h15.07l6.03-44.06h1.72c1.44,0,2.44,0.53,3.01,1.58
				c0.57,1.05,0.86,2.58,0.86,4.59c0,1.63-0.14,3.49-0.43,5.6l-4.45,32.29h14.92l4.31-31.28c0.19-1.63,0.36-3.09,0.5-4.38
				c0.14-1.29,0.22-2.56,0.22-3.8c0-6.12-1.67-10.28-5.02-12.48c3.25-1.63,5.43-3.85,6.53-6.67c1.1-2.82,1.98-6.24,2.65-10.26
				l0.86-5.6c0.19-1.05,0.33-2.1,0.43-3.16c0.09-1.05,0.14-2.1,0.14-3.16C366.96,225,365.6,221.05,362.87,218.04z M351.17,234.68
				c0,0.72-0.1,1.46-0.29,2.22l-0.57,4.16c-0.77,4.98-1.72,8.3-2.87,9.97c-1.15,1.67-2.58,2.51-4.31,2.51h-0.57l3.73-26.4
				c0.29-0.09,0.52-0.17,0.72-0.22c0.19-0.05,0.43-0.07,0.72-0.07c2.3,0,3.44,1.91,3.44,5.74V234.68z"/>
		</g>
	</g>
</g>
<g id="Color_Fill_2_1_" class="st0">
	<g id="Color_Fill_2">
		<g>
			<path class="st3" d="M318.92,125.36c-4.14-6.21-30.86-4.25-41.99-4c0.02-7.73-0.52-13.97-2.5-20.01
				c-10.07-30.68-47.61-58.95-88.97-41.52c-15.19,6.4-28.45,19.44-34.99,34.51c-4.63,9.18-5.84,25.78-5.58,27.01
				c0.03,0,0.06,0,0.09,0c-0.04,0.11-0.07,0.1-0.09,0c-8.45,0-13.92,0.15-22.39,0.15c-4.89-27.44-9.37-46.25-17-46.5
				c-6.18-0.2-18-0.43-41-0.16v18.01h30.49c2.17,11.92,16.31,82.48,21.49,104.04c0.27,1.14,19.61,1.12,18.52,1.12
				c73.28-0.1,108.82-0.53,169.01,0.5c0.51,0.01,7.71-30.55,11.41-45.64C316.91,146.8,322.28,130.4,318.92,125.36z M254.44,141.87
				c-6.69,15.23-20.27,24.64-38.99,27.01c-8.28,1.05-16.49-1.6-21.49-3.5c-18.81-7.16-39.44-32.73-27.99-61.02
				c5.08-12.56,14.67-22.61,27.04-27.85c5.59-1.89,12.17-3.24,17-3.5C246.79,73.97,270.23,105.92,254.44,141.87z M234.95,92.35
				c-9.37,10.54-30.27,29.51-30.99,29.51c-1.33,0-10.54-8.29-17.49-16.01c-4.16,4-7.83,7.5-12,11.5c0.62,0.94,5.95,6.84,10.5,11.5
				c9.72,9.97,15.61,18.87,23.99,13.51c4.86-3.11,9.24-8.13,13.5-12.51c10.39-10.68,26.22-26.38,24.99-24.51h0.5v-0.5
				C244.46,101.12,239.02,95.87,234.95,92.35z"/>
		</g>
	</g>
</g>
<g id="Color_Fill_3_1_" class="st0">
	<g id="Color_Fill_3">
		<g>
			<path class="st3" d="M44,329.52c1.83,3.5,4.95,5.73,7,9h305.02c2.33-2.83,4.67-5.67,7-8.5v-0.5H44z"/>
		</g>
	</g>
</g>
</svg>
