<?xml version="1.0" encoding="utf-8"?>
<!-- Generator: Adobe Illustrator 24.1.2, SVG Export Plug-In . SVG Version: 6.00 Build 0)  -->
<svg version="1.1" id="Layer_1" xmlns="http://www.w3.org/2000/svg" xmlns:xlink="http://www.w3.org/1999/xlink" x="0px" y="0px"
	 viewBox="0 0 480 480" style="enable-background:new 0 0 480 480;" xml:space="preserve">
<style type="text/css">
	.st0{fill:#7B7B7B;}
</style>
<path class="st0" d="M168,160c0-16.6-6.5-32.5-18.1-44.4c17.7-7.2,38-3.2,51.6,10.2l11.2-11.4c-20.5-20.1-52-24.1-76.8-9.6
	c-19.8-11.5-44.2-11.5-64-0.1C52.2,116,40,137.1,40,160v32H8c-4.4,0-8,3.6-8,8v272c0,4.4,3.6,8,8,8h168v-16H80V208h24v32h16v-32h56
	v-16h-8V160z M46.7,419.6c-1.6-2.1-4-3.3-6.7-3.3s-5.1,1.2-6.7,3.3l-17.3,26V226.4l17.3,26c1.5,2.2,4,3.6,6.7,3.6s5.2-1.3,6.7-3.6
	l17.3-26v219.2L46.7,419.6z M57.1,464H22.9L40,438.4L57.1,464z M40,233.6L22.9,208h34.1L40,233.6z M56,192v-32
	c0-16,7.9-30.9,21.2-39.8c13.3-8.9,30.1-10.6,44.9-4.6C110.5,127.5,104,143.4,104,160v32H56z M120,160c0-13.6,5.8-26.6,16-35.7
	c10.2,9.1,16,22,16,35.7v32h-32V160z"/>
<path class="st0" d="M255.2,107.6c0.5-1.1,0.8-2.3,0.8-3.6V48h32v56c0,1.2,0.3,2.5,0.8,3.6l48,96l14.3-7.1L304,102.1V8
	c0-4.4-3.6-8-8-8h-48c-4.4,0-8,3.6-8,8v94.1l-47.2,94.3c-0.6,1.1-0.8,2.3-0.8,3.6v272c0,4.4,3.6,8,8,8h56v-16h-48V201.9L255.2,107.6
	z M288,16v16h-32V16H288z"/>
<path class="st0" d="M478.9,307.9l-30.9-54V224c0-4.4-3.6-8-8-8H312c-4.4,0-8,3.6-8,8v29.9L273.1,308c-0.7,1.2-1.1,2.6-1.1,4v160
	c0,4.4,3.6,8,8,8h192c4.4,0,8-3.6,8-8V312C480,310.6,479.6,309.1,478.9,307.9z M458.2,304h-36.4l18.2-31.9L458.2,304z M320,232h112
	v16H320V232z M316.6,264h109.6l-22.9,40H293.8L316.6,264z M400,464H288V320h112V464z M464,464h-48V320h48V464z"/>
</svg>
