<?xml version="1.0" encoding="utf-8"?>
<!-- Generator: Adobe Illustrator 24.1.2, SVG Export Plug-In . SVG Version: 6.00 Build 0)  -->
<svg version="1.1" id="Capa_1" xmlns="http://www.w3.org/2000/svg" xmlns:xlink="http://www.w3.org/1999/xlink" x="0px" y="0px"
	 viewBox="0 0 512 512" style="enable-background:new 0 0 512 512;" xml:space="preserve">
<style type="text/css">
	.st0{fill:#007DC3;}
</style>
<g>
	<path class="st0" d="M306.5,339c-4.3,0-8.7,3.9-8.7,17.1s4.3,17.1,8.7,17.1c4.3,0,8.7-3.9,8.7-17.1C315.2,343,310.9,339,306.5,339z
		"/>
	<path class="st0" d="M205.5,274c-4.3,0-8.7,3.9-8.7,17.1c0,13.2,4.3,17.1,8.7,17.1s8.7-3.9,8.7-17.1C214.1,278,209.8,274,205.5,274
		z"/>
	<path class="st0" d="M405.9,181.6c-43.4-47.9-69.2-90.2-83.2-117.1c-15.2-29.2-20.1-47.3-20.2-47.5L298,0l-16.1,7.2
		C280,8,235.5,28.3,210.5,78.2c-12.5,25.1-15,52.9-14.9,71.9c0.1,11-7.8,20.6-18.6,22.8c-7.6,1.5-15.4-0.8-20.9-6.3l-30-30
		l-10.3,14.2c-1.1,1.5-26.3,36.3-30.9,43.2c-22.4,34-34.1,73.5-33.8,114.4c0.4,54.6,21.9,105.8,60.5,144.1
		C150.1,490.9,201.4,512,256,512c113,0,205-92,205-205C461,266,440.9,220.3,405.9,181.6z M306.5,394.6c-20.9,0-36.6-13.8-36.6-38.4
		c0-24.4,15.8-38.4,36.6-38.4s36.6,14,36.6,38.4C343.2,380.8,327.4,394.6,306.5,394.6z M286.4,254.7h33.3l-94.1,137.9h-33.3
		L286.4,254.7z M168.9,291.2c0-24.4,15.8-38.4,36.6-38.4s36.6,14,36.6,38.4c0,24.6-15.8,38.4-36.6,38.4S168.9,315.8,168.9,291.2z"/>
</g>
</svg>
